<svg width="100" height="100" viewBox="0 0 100 100" fill="none" xmlns="http://www.w3.org/2000/svg">
<path d="M100 50C100 22.3858 77.6142 0 50 0C22.3858 0 0 22.3858 0 50C0 77.6142 22.3858 100 50 100C77.6142 100 100 77.6142 100 50Z" fill="url(#paint0_radial)"/>
<path d="M34.1003 40.6272C42.8815 32.6116 57.1185 32.6116 65.8997 40.6272L66.9565 41.5919C67.3956 41.9927 67.3956 42.6425 66.9565 43.0433L63.3413 46.3434C63.1218 46.5438 62.7659 46.5438 62.5463 46.3434L61.092 45.0158C54.9661 39.4239 45.0339 39.4239 38.908 45.0158L37.3505 46.4375C37.131 46.6379 36.7751 46.6379 36.5556 46.4375L32.9404 43.1375C32.5013 42.7367 32.5013 42.0869 32.9404 41.6861L34.1003 40.6272ZM73.3762 47.4521L76.5938 50.3892C77.0328 50.7899 77.0328 51.4397 76.5938 51.8405L62.0857 65.0841C61.6467 65.4849 60.9348 65.4849 60.4958 65.0841C60.4958 65.0841 60.4958 65.0841 60.4958 65.0841L50.1988 55.6848C50.0891 55.5846 49.9111 55.5846 49.8013 55.6848C49.8013 55.6848 49.8013 55.6848 49.8013 55.6848L39.5046 65.0841C39.0656 65.4849 38.3537 65.4849 37.9147 65.0841C37.9147 65.0841 37.9147 65.0841 37.9146 65.0841L23.4062 51.8404C22.9671 51.4396 22.9671 50.7898 23.4062 50.389L26.6237 47.4519C27.0628 47.0511 27.7746 47.0511 28.2137 47.4519L38.5108 56.8514C38.6205 56.9516 38.7985 56.9516 38.9083 56.8514C38.9083 56.8514 38.9083 56.8514 38.9083 56.8514L49.2048 47.4519C49.6439 47.0511 50.3557 47.0511 50.7948 47.4519C50.7948 47.4519 50.7948 47.4519 50.7948 47.4519L61.0919 56.8514C61.2016 56.9516 61.3796 56.9516 61.4894 56.8514L71.7863 47.4521C72.2253 47.0513 72.9372 47.0513 73.3762 47.4521Z" fill="white"/>
<defs>
<radialGradient id="paint0_radial" cx="0" cy="0" r="1" gradientUnits="userSpaceOnUse" gradientTransform="translate(0 50) scale(100)">
<stop stop-color="#5D9DF6"/>
<stop offset="1" stop-color="#006FFF"/>
</radialGradient>
</defs>
</svg>
