<svg width="100" height="100" viewBox="0 0 100 100" fill="none" xmlns="http://www.w3.org/2000/svg">
<path fill-rule="evenodd" clip-rule="evenodd" d="M34.3137 77.034L43.9218 79.5905V76.2475L44.7061 75.4609H50.1963V79.3937V82.1466H44.314L37.0588 79.0004L34.3137 77.034Z" fill="#CDBDB2"/>
<path fill-rule="evenodd" clip-rule="evenodd" d="M65.6858 77.034L56.274 79.5905V76.2475L55.4897 75.4609H49.9994V79.3937V82.1466H55.8818L63.1366 79.0004L65.6858 77.034Z" fill="#CDBDB2"/>
<path fill-rule="evenodd" clip-rule="evenodd" d="M44.706 69.7585L43.9217 76.2473L44.9019 75.4608H55.098L56.2745 76.2473L55.4902 69.7585L53.9216 68.7751L46.0784 68.972L44.706 69.7585Z" fill="#393939"/>
<path fill-rule="evenodd" clip-rule="evenodd" d="M39.4117 25.9087L44.1177 36.9203L46.2747 68.9722H53.9216L56.2746 36.9203L60.5883 25.9087H39.4117Z" fill="#F89C35"/>
<path fill-rule="evenodd" clip-rule="evenodd" d="M18.8235 50.0951L13.3333 66.0225L27.0589 65.2359H35.8823V58.3538L35.4901 44.196L33.5293 45.7691L18.8235 50.0951Z" fill="#F89D35"/>
<path fill-rule="evenodd" clip-rule="evenodd" d="M29.2156 51.8645L45.2941 52.2578L43.5296 60.5165L35.8823 58.5501L29.2156 51.8645Z" fill="#D87C30"/>
<path fill-rule="evenodd" clip-rule="evenodd" d="M29.2156 52.0615L35.8823 58.3539V64.6462L29.2156 52.0615Z" fill="#EA8D3A"/>
<path fill-rule="evenodd" clip-rule="evenodd" d="M35.8825 58.5503L43.7257 60.5167L46.2749 68.9722L44.51 69.9552L35.8825 64.8426V58.5503Z" fill="#F89D35"/>
<path fill-rule="evenodd" clip-rule="evenodd" d="M35.8824 64.8425L34.3137 77.034L44.7061 69.7586L35.8824 64.8425Z" fill="#EB8F35"/>
<path fill-rule="evenodd" clip-rule="evenodd" d="M45.2939 52.2578L46.2745 68.972L43.3331 60.4183L45.2939 52.2578Z" fill="#EA8E3A"/>
<path fill-rule="evenodd" clip-rule="evenodd" d="M26.8627 65.0393L35.8823 64.8425L34.3137 77.034L26.8627 65.0393Z" fill="#D87C30"/>
<path fill-rule="evenodd" clip-rule="evenodd" d="M17.6471 82.3433L34.3136 77.0339L26.8626 65.0393L13.3333 66.0223L17.6471 82.3433Z" fill="#EB8F35"/>
<path fill-rule="evenodd" clip-rule="evenodd" d="M44.1177 36.9202L35.6864 43.9991L29.2156 51.8645L45.2941 52.4546L44.1177 36.9202Z" fill="#E8821E"/>
<path fill-rule="evenodd" clip-rule="evenodd" d="M34.3137 77.0339L44.7061 69.7585L43.9218 76.0509V79.5903L36.8629 78.2137L34.3137 77.0339Z" fill="#DFCEC3"/>
<path fill-rule="evenodd" clip-rule="evenodd" d="M65.6858 77.0339L55.4897 69.7585L56.274 76.0509V79.5903L63.3328 78.2137L65.6858 77.0339Z" fill="#DFCEC3"/>
<path fill-rule="evenodd" clip-rule="evenodd" d="M40.9809 55.7974L43.1379 60.3202L35.4907 58.3538L40.9809 55.7974Z" fill="#393939"/>
<path fill-rule="evenodd" clip-rule="evenodd" d="M17.4507 16.667L44.1175 36.9203L39.6078 25.9087L17.4507 16.667Z" fill="#E88F35"/>
<path fill-rule="evenodd" clip-rule="evenodd" d="M17.4509 16.6667L13.9214 27.4817L15.8822 39.2799L14.5097 40.0664L16.4705 41.8362L14.9018 43.2126L17.0587 45.179L15.6862 46.3588L18.8234 50.2915L33.5294 45.7689C40.719 40.0009 44.2484 37.0513 44.1177 36.9203C43.987 36.7892 35.098 30.038 17.4509 16.6667Z" fill="#8E5A30"/>
<path fill-rule="evenodd" clip-rule="evenodd" d="M81.1764 50.0951L86.6666 66.0225L72.9411 65.2359H64.1177V58.3538L64.5098 44.196L66.4706 45.7691L81.1764 50.0951Z" fill="#F89D35"/>
<path fill-rule="evenodd" clip-rule="evenodd" d="M70.7852 51.8645L54.7067 52.2578L56.4712 60.5165L64.1185 58.5501L70.7852 51.8645Z" fill="#D87C30"/>
<path fill-rule="evenodd" clip-rule="evenodd" d="M70.7852 52.0613L64.1185 58.3536V64.646L70.7852 52.0613Z" fill="#EA8D3A"/>
<path fill-rule="evenodd" clip-rule="evenodd" d="M64.1174 58.5503L56.2743 60.5167L53.725 68.9722L55.4899 69.9552L64.1174 64.8426V58.5503Z" fill="#F89D35"/>
<path fill-rule="evenodd" clip-rule="evenodd" d="M64.1172 64.8425L65.6858 77.034L55.4897 69.9551L64.1172 64.8425Z" fill="#EB8F35"/>
<path fill-rule="evenodd" clip-rule="evenodd" d="M54.7056 52.2578L53.725 68.972L56.6664 60.4183L54.7056 52.2578Z" fill="#EA8E3A"/>
<path fill-rule="evenodd" clip-rule="evenodd" d="M73.1373 65.0393L64.1177 64.8425L65.6863 77.034L73.1373 65.0393Z" fill="#D87C30"/>
<path fill-rule="evenodd" clip-rule="evenodd" d="M82.3529 82.3433L65.6863 77.0339L73.1373 65.0393L86.6666 66.0223L82.3529 82.3433Z" fill="#EB8F35"/>
<path fill-rule="evenodd" clip-rule="evenodd" d="M55.8832 36.9202L64.3144 43.9991L70.7852 51.8645L54.7067 52.4546L55.8832 36.9202Z" fill="#E8821E"/>
<path fill-rule="evenodd" clip-rule="evenodd" d="M59.019 55.7974L56.862 60.3202L64.5093 58.3538L59.019 55.7974Z" fill="#393939"/>
<path fill-rule="evenodd" clip-rule="evenodd" d="M82.5493 16.6667L55.8824 36.9201L60.3921 25.9085L82.5493 16.6667Z" fill="#E88F35"/>
<path fill-rule="evenodd" clip-rule="evenodd" d="M82.5486 16.6667L86.0781 27.4817L84.1173 39.2799L85.4898 40.0664L83.529 41.8362L85.0977 43.2126L82.9408 45.179L84.3133 46.3588L81.1761 50.2915L66.4701 45.7689C59.2805 40.0009 55.7511 37.0513 55.8818 36.9203C56.0126 36.7892 64.9015 30.038 82.5486 16.6667Z" fill="#8E5A30"/>
</svg>
